<?xml version="1.0" encoding="UTF-8"?>
<svg version="1.1" xmlns="http://www.w3.org/2000/svg" width="75" height="75">
<path d="M0 0 C8.00616445 5.69566061 13.51658945 12.96061697 15.703125 22.59375 C16.70291584 34.72108304 15.63747884 43.97941904 7.79296875 53.44921875 C1.30968681 60.10215667 -5.58590059 64.12293091 -14.9453125 64.89453125 C-27.17322134 64.93298379 -35.36431591 63.3147913 -44.296875 54.59375 C-52.42702145 44.80660228 -54.15236182 36.03901118 -53.48339844 23.59960938 C-52.66746631 14.82513513 -47.60243045 8.4054277 -41.296875 2.59375 C-29.74923545 -6.4244066 -12.56988144 -7.69584578 0 0 Z M-38.140625 10.2890625 C-42.96161294 15.3347575 -44.69955486 19.82862941 -46.296875 26.59375 C-42.336875 26.59375 -38.376875 26.59375 -34.296875 26.59375 C-34.049375 24.964375 -33.801875 23.335 -33.546875 21.65625 C-32.68514845 16.82308802 -31.27545179 12.75854184 -29.1015625 8.37109375 C-28.15939338 6.61525888 -28.15939338 6.61525888 -28.296875 4.59375 C-32.2818152 4.59375 -35.33622244 7.71043811 -38.140625 10.2890625 Z M-19.296875 4.59375 C-20.45846658 6.75315784 -21.6007645 8.91970247 -22.734375 11.09375 C-23.22260742 11.99480469 -23.22260742 11.99480469 -23.72070312 12.9140625 C-24.03330078 13.51992188 -24.34589844 14.12578125 -24.66796875 14.75 C-24.95599365 15.29462891 -25.24401855 15.83925781 -25.54077148 16.40039062 C-26.66443366 19.65999055 -26.86922294 23.17253354 -27.296875 26.59375 C-21.686875 26.59375 -16.076875 26.59375 -10.296875 26.59375 C-10.8575674 20.14037346 -10.8575674 20.14037346 -12.92578125 14.75 C-13.23837891 14.14414062 -13.55097656 13.53828125 -13.87304688 12.9140625 C-14.19853516 12.31335938 -14.52402344 11.71265625 -14.859375 11.09375 C-15.18873047 10.46210938 -15.51808594 9.83046875 -15.85742188 9.1796875 C-16.65953055 7.64521874 -17.47662616 6.11859902 -18.296875 4.59375 C-18.626875 4.59375 -18.956875 4.59375 -19.296875 4.59375 Z M-9.296875 4.59375 C-8.86375 5.810625 -8.430625 7.0275 -7.984375 8.28125 C-5.97260596 14.27823771 -4.64244812 20.41938257 -3.296875 26.59375 C0.663125 26.59375 4.623125 26.59375 8.703125 26.59375 C6.55923735 17.51375525 3.11495668 11.50835505 -4.609375 6.09375 C-7.07497956 4.43129461 -7.07497956 4.43129461 -9.296875 4.59375 Z M-46.296875 33.59375 C-44.46751823 42.13074825 -41.08875942 47.9609272 -34.296875 53.59375 C-31.13805818 54.89314012 -31.13805818 54.89314012 -28.296875 55.59375 C-28.49023438 55.01367188 -28.68359375 54.43359375 -28.8828125 53.8359375 C-29.42343775 52.21406175 -29.96241861 50.5916372 -30.5 48.96875 C-31.11775901 47.12758588 -31.76406893 45.29598909 -32.421875 43.46875 C-33.41832208 40.19470961 -33.88965841 36.98722159 -34.296875 33.59375 C-38.256875 33.59375 -42.216875 33.59375 -46.296875 33.59375 Z M-27.296875 33.59375 C-26.7361826 40.04712654 -26.7361826 40.04712654 -24.66796875 45.4375 C-24.35537109 46.04335938 -24.04277344 46.64921875 -23.72070312 47.2734375 C-23.39521484 47.87414063 -23.06972656 48.47484375 -22.734375 49.09375 C-22.40501953 49.72539063 -22.07566406 50.35703125 -21.73632812 51.0078125 C-20.93421945 52.54228126 -20.11712384 54.06890098 -19.296875 55.59375 C-16.80581407 52.61178818 -14.6995872 49.83164214 -13.109375 46.28125 C-12.78582031 45.58386719 -12.46226563 44.88648438 -12.12890625 44.16796875 C-10.93954161 40.7625765 -10.93954161 40.7625765 -10.296875 33.59375 C-15.906875 33.59375 -21.516875 33.59375 -27.296875 33.59375 Z M-3.296875 33.59375 C-3.56242187 34.67914063 -3.82796875 35.76453125 -4.1015625 36.8828125 C-4.45820582 38.32815647 -4.8149838 39.77346722 -5.171875 41.21875 C-5.34589844 41.93160156 -5.51992188 42.64445312 -5.69921875 43.37890625 C-6.72541838 47.52171216 -7.88478229 51.56101678 -9.296875 55.59375 C-3.3575025 53.92330148 1.69229771 49.6272266 5.0703125 44.53125 C7.01563107 40.78260691 7.85473456 37.8357022 8.703125 33.59375 C4.743125 33.59375 0.783125 33.59375 -3.296875 33.59375 Z " fill="#000000" transform="translate(56.296875,7.40625)"/>
</svg>
