<?xml version="1.0" standalone="no"?>
<svg xmlns="http://www.w3.org/2000/svg" width="2000" height="2000" viewBox="0 0 2000 2000"><defs><clipPath id="clip-path-dot-color"><rect x="112" y="592" width="48" height="48" transform="rotate(0,136,616)"/><rect x="112" y="640" width="48" height="48" transform="rotate(0,136,664)"/><rect x="112" y="736" width="48" height="48" transform="rotate(0,136,760)"/><rect x="112" y="784" width="48" height="48" transform="rotate(0,136,808)"/><rect x="112" y="832" width="48" height="48" transform="rotate(0,136,856)"/><rect x="112" y="880" width="48" height="48" transform="rotate(0,136,904)"/><rect x="112" y="976" width="48" height="48" transform="rotate(0,136,1000)"/><rect x="112" y="1120" width="48" height="48" transform="rotate(0,136,1144)"/><rect x="112" y="1168" width="48" height="48" transform="rotate(0,136,1192)"/><rect x="112" y="1216" width="48" height="48" transform="rotate(0,136,1240)"/><rect x="112" y="1312" width="48" height="48" transform="rotate(0,136,1336)"/><rect x="112" y="1360" width="48" height="48" transform="rotate(0,136,1384)"/><rect x="160" y="496" width="48" height="48" transform="rotate(0,184,520)"/><rect x="160" y="544" width="48" height="48" transform="rotate(0,184,568)"/><rect x="160" y="688" width="48" height="48" transform="rotate(0,184,712)"/><rect x="160" y="736" width="48" height="48" transform="rotate(0,184,760)"/><rect x="160" y="784" width="48" height="48" transform="rotate(0,184,808)"/><rect x="160" y="832" width="48" height="48" transform="rotate(0,184,856)"/><rect x="160" y="880" width="48" height="48" transform="rotate(0,184,904)"/><rect x="160" y="928" width="48" height="48" transform="rotate(0,184,952)"/><rect x="160" y="976" width="48" height="48" transform="rotate(0,184,1000)"/><rect x="160" y="1024" width="48" height="48" transform="rotate(0,184,1048)"/><rect x="160" y="1072" width="48" height="48" transform="rotate(0,184,1096)"/><rect x="160" y="1216" width="48" height="48" transform="rotate(0,184,1240)"/><rect x="160" y="1264" width="48" height="48" transform="rotate(0,184,1288)"/><rect x="160" y="1312" width="48" height="48" transform="rotate(0,184,1336)"/><rect x="160" y="1456" width="48" height="48" transform="rotate(0,184,1480)"/><rect x="208" y="544" width="48" height="48" transform="rotate(0,232,568)"/><rect x="208" y="784" width="48" height="48" transform="rotate(0,232,808)"/><rect x="208" y="832" width="48" height="48" transform="rotate(0,232,856)"/><rect x="208" y="928" width="48" height="48" transform="rotate(0,232,952)"/><rect x="208" y="976" width="48" height="48" transform="rotate(0,232,1000)"/><rect x="208" y="1024" width="48" height="48" transform="rotate(0,232,1048)"/><rect x="208" y="1072" width="48" height="48" transform="rotate(0,232,1096)"/><rect x="208" y="1120" width="48" height="48" transform="rotate(0,232,1144)"/><rect x="208" y="1216" width="48" height="48" transform="rotate(0,232,1240)"/><rect x="208" y="1312" width="48" height="48" transform="rotate(0,232,1336)"/><rect x="208" y="1360" width="48" height="48" transform="rotate(0,232,1384)"/><rect x="208" y="1408" width="48" height="48" transform="rotate(0,232,1432)"/><rect x="208" y="1456" width="48" height="48" transform="rotate(0,232,1480)"/><rect x="256" y="496" width="48" height="48" transform="rotate(0,280,520)"/><rect x="256" y="544" width="48" height="48" transform="rotate(0,280,568)"/><rect x="256" y="640" width="48" height="48" transform="rotate(0,280,664)"/><rect x="256" y="736" width="48" height="48" transform="rotate(0,280,760)"/><rect x="256" y="832" width="48" height="48" transform="rotate(0,280,856)"/><rect x="256" y="1120" width="48" height="48" transform="rotate(0,280,1144)"/><rect x="256" y="1216" width="48" height="48" transform="rotate(0,280,1240)"/><rect x="256" y="1264" width="48" height="48" transform="rotate(0,280,1288)"/><rect x="304" y="496" width="48" height="48" transform="rotate(0,328,520)"/><rect x="304" y="544" width="48" height="48" transform="rotate(0,328,568)"/><rect x="304" y="592" width="48" height="48" transform="rotate(0,328,616)"/><rect x="304" y="640" width="48" height="48" transform="rotate(0,328,664)"/><rect x="304" y="688" width="48" height="48" transform="rotate(0,328,712)"/><rect x="304" y="880" width="48" height="48" transform="rotate(0,328,904)"/><rect x="304" y="976" width="48" height="48" transform="rotate(0,328,1000)"/><rect x="304" y="1072" width="48" height="48" transform="rotate(0,328,1096)"/><rect x="304" y="1168" width="48" height="48" transform="rotate(0,328,1192)"/><rect x="304" y="1312" width="48" height="48" transform="rotate(0,328,1336)"/><rect x="304" y="1360" width="48" height="48" transform="rotate(0,328,1384)"/><rect x="304" y="1408" width="48" height="48" transform="rotate(0,328,1432)"/><rect x="304" y="1456" width="48" height="48" transform="rotate(0,328,1480)"/><rect x="352" y="592" width="48" height="48" transform="rotate(0,376,616)"/><rect x="352" y="640" width="48" height="48" transform="rotate(0,376,664)"/><rect x="352" y="688" width="48" height="48" transform="rotate(0,376,712)"/><rect x="352" y="784" width="48" height="48" transform="rotate(0,376,808)"/><rect x="352" y="832" width="48" height="48" transform="rotate(0,376,856)"/><rect x="352" y="880" width="48" height="48" transform="rotate(0,376,904)"/><rect x="352" y="928" width="48" height="48" transform="rotate(0,376,952)"/><rect x="352" y="1216" width="48" height="48" transform="rotate(0,376,1240)"/><rect x="352" y="1312" width="48" height="48" transform="rotate(0,376,1336)"/><rect x="352" y="1360" width="48" height="48" transform="rotate(0,376,1384)"/><rect x="352" y="1456" width="48" height="48" transform="rotate(0,376,1480)"/><rect x="400" y="496" width="48" height="48" transform="rotate(0,424,520)"/><rect x="400" y="592" width="48" height="48" transform="rotate(0,424,616)"/><rect x="400" y="688" width="48" height="48" transform="rotate(0,424,712)"/><rect x="400" y="784" width="48" height="48" transform="rotate(0,424,808)"/><rect x="400" y="880" width="48" height="48" transform="rotate(0,424,904)"/><rect x="400" y="976" width="48" height="48" transform="rotate(0,424,1000)"/><rect x="400" y="1072" width="48" height="48" transform="rotate(0,424,1096)"/><rect x="400" y="1168" width="48" height="48" transform="rotate(0,424,1192)"/><rect x="400" y="1264" width="48" height="48" transform="rotate(0,424,1288)"/><rect x="400" y="1360" width="48" height="48" transform="rotate(0,424,1384)"/><rect x="400" y="1456" width="48" height="48" transform="rotate(0,424,1480)"/><rect x="448" y="496" width="48" height="48" transform="rotate(0,472,520)"/><rect x="448" y="592" width="48" height="48" transform="rotate(0,472,616)"/><rect x="448" y="784" width="48" height="48" transform="rotate(0,472,808)"/><rect x="448" y="1024" width="48" height="48" transform="rotate(0,472,1048)"/><rect x="448" y="1072" width="48" height="48" transform="rotate(0,472,1096)"/><rect x="448" y="1168" width="48" height="48" transform="rotate(0,472,1192)"/><rect x="448" y="1360" width="48" height="48" transform="rotate(0,472,1384)"/><rect x="448" y="1408" width="48" height="48" transform="rotate(0,472,1432)"/><rect x="496" y="160" width="48" height="48" transform="rotate(0,520,184)"/><rect x="496" y="256" width="48" height="48" transform="rotate(0,520,280)"/><rect x="496" y="304" width="48" height="48" transform="rotate(0,520,328)"/><rect x="496" y="352" width="48" height="48" transform="rotate(0,520,376)"/><rect x="496" y="400" width="48" height="48" transform="rotate(0,520,424)"/><rect x="496" y="496" width="48" height="48" transform="rotate(0,520,520)"/><rect x="496" y="736" width="48" height="48" transform="rotate(0,520,760)"/><rect x="496" y="832" width="48" height="48" transform="rotate(0,520,856)"/><rect x="496" y="928" width="48" height="48" transform="rotate(0,520,952)"/><rect x="496" y="1024" width="48" height="48" transform="rotate(0,520,1048)"/><rect x="496" y="1072" width="48" height="48" transform="rotate(0,520,1096)"/><rect x="496" y="1216" width="48" height="48" transform="rotate(0,520,1240)"/><rect x="496" y="1264" width="48" height="48" transform="rotate(0,520,1288)"/><rect x="496" y="1312" width="48" height="48" transform="rotate(0,520,1336)"/><rect x="496" y="1360" width="48" height="48" transform="rotate(0,520,1384)"/><rect x="496" y="1456" width="48" height="48" transform="rotate(0,520,1480)"/><rect x="496" y="1504" width="48" height="48" transform="rotate(0,520,1528)"/><rect x="496" y="1552" width="48" height="48" transform="rotate(0,520,1576)"/><rect x="496" y="1648" width="48" height="48" transform="rotate(0,520,1672)"/><rect x="496" y="1696" width="48" height="48" transform="rotate(0,520,1720)"/><rect x="496" y="1792" width="48" height="48" transform="rotate(0,520,1816)"/><rect x="544" y="160" width="48" height="48" transform="rotate(0,568,184)"/><rect x="544" y="256" width="48" height="48" transform="rotate(0,568,280)"/><rect x="544" y="304" width="48" height="48" transform="rotate(0,568,328)"/><rect x="544" y="448" width="48" height="48" transform="rotate(0,568,472)"/><rect x="544" y="496" width="48" height="48" transform="rotate(0,568,520)"/><rect x="544" y="544" width="48" height="48" transform="rotate(0,568,568)"/><rect x="544" y="592" width="48" height="48" transform="rotate(0,568,616)"/><rect x="544" y="640" width="48" height="48" transform="rotate(0,568,664)"/><rect x="544" y="736" width="48" height="48" transform="rotate(0,568,760)"/><rect x="544" y="832" width="48" height="48" transform="rotate(0,568,856)"/><rect x="544" y="880" width="48" height="48" transform="rotate(0,568,904)"/><rect x="544" y="976" width="48" height="48" transform="rotate(0,568,1000)"/><rect x="544" y="1168" width="48" height="48" transform="rotate(0,568,1192)"/><rect x="544" y="1216" width="48" height="48" transform="rotate(0,568,1240)"/><rect x="544" y="1360" width="48" height="48" transform="rotate(0,568,1384)"/><rect x="544" y="1456" width="48" height="48" transform="rotate(0,568,1480)"/><rect x="544" y="1504" width="48" height="48" transform="rotate(0,568,1528)"/><rect x="544" y="1648" width="48" height="48" transform="rotate(0,568,1672)"/><rect x="544" y="1744" width="48" height="48" transform="rotate(0,568,1768)"/><rect x="592" y="208" width="48" height="48" transform="rotate(0,616,232)"/><rect x="592" y="256" width="48" height="48" transform="rotate(0,616,280)"/><rect x="592" y="352" width="48" height="48" transform="rotate(0,616,376)"/><rect x="592" y="400" width="48" height="48" transform="rotate(0,616,424)"/><rect x="592" y="784" width="48" height="48" transform="rotate(0,616,808)"/><rect x="592" y="976" width="48" height="48" transform="rotate(0,616,1000)"/><rect x="592" y="1120" width="48" height="48" transform="rotate(0,616,1144)"/><rect x="592" y="1216" width="48" height="48" transform="rotate(0,616,1240)"/><rect x="592" y="1408" width="48" height="48" transform="rotate(0,616,1432)"/><rect x="592" y="1456" width="48" height="48" transform="rotate(0,616,1480)"/><rect x="592" y="1600" width="48" height="48" transform="rotate(0,616,1624)"/><rect x="592" y="1648" width="48" height="48" transform="rotate(0,616,1672)"/><rect x="592" y="1696" width="48" height="48" transform="rotate(0,616,1720)"/><rect x="592" y="1744" width="48" height="48" transform="rotate(0,616,1768)"/><rect x="592" y="1792" width="48" height="48" transform="rotate(0,616,1816)"/><rect x="592" y="1840" width="48" height="48" transform="rotate(0,616,1864)"/><rect x="640" y="112" width="48" height="48" transform="rotate(0,664,136)"/><rect x="640" y="160" width="48" height="48" transform="rotate(0,664,184)"/><rect x="640" y="208" width="48" height="48" transform="rotate(0,664,232)"/><rect x="640" y="352" width="48" height="48" transform="rotate(0,664,376)"/><rect x="640" y="496" width="48" height="48" transform="rotate(0,664,520)"/><rect x="640" y="592" width="48" height="48" transform="rotate(0,664,616)"/><rect x="640" y="640" width="48" height="48" transform="rotate(0,664,664)"/><rect x="640" y="688" width="48" height="48" transform="rotate(0,664,712)"/><rect x="640" y="736" width="48" height="48" transform="rotate(0,664,760)"/><rect x="640" y="880" width="48" height="48" transform="rotate(0,664,904)"/><rect x="640" y="1024" width="48" height="48" transform="rotate(0,664,1048)"/><rect x="640" y="1408" width="48" height="48" transform="rotate(0,664,1432)"/><rect x="640" y="1456" width="48" height="48" transform="rotate(0,664,1480)"/><rect x="640" y="1552" width="48" height="48" transform="rotate(0,664,1576)"/><rect x="640" y="1648" width="48" height="48" transform="rotate(0,664,1672)"/><rect x="640" y="1696" width="48" height="48" transform="rotate(0,664,1720)"/><rect x="640" y="1744" width="48" height="48" transform="rotate(0,664,1768)"/><rect x="640" y="1792" width="48" height="48" transform="rotate(0,664,1816)"/><rect x="640" y="1840" width="48" height="48" transform="rotate(0,664,1864)"/><rect x="688" y="352" width="48" height="48" transform="rotate(0,712,376)"/><rect x="688" y="400" width="48" height="48" transform="rotate(0,712,424)"/><rect x="688" y="496" width="48" height="48" transform="rotate(0,712,520)"/><rect x="688" y="544" width="48" height="48" transform="rotate(0,712,568)"/><rect x="688" y="640" width="48" height="48" transform="rotate(0,712,664)"/><rect x="688" y="688" width="48" height="48" transform="rotate(0,712,712)"/><rect x="688" y="736" width="48" height="48" transform="rotate(0,712,760)"/><rect x="688" y="832" width="48" height="48" transform="rotate(0,712,856)"/><rect x="688" y="928" width="48" height="48" transform="rotate(0,712,952)"/><rect x="688" y="1072" width="48" height="48" transform="rotate(0,712,1096)"/><rect x="688" y="1216" width="48" height="48" transform="rotate(0,712,1240)"/><rect x="688" y="1264" width="48" height="48" transform="rotate(0,712,1288)"/><rect x="688" y="1312" width="48" height="48" transform="rotate(0,712,1336)"/><rect x="688" y="1552" width="48" height="48" transform="rotate(0,712,1576)"/><rect x="688" y="1600" width="48" height="48" transform="rotate(0,712,1624)"/><rect x="688" y="1696" width="48" height="48" transform="rotate(0,712,1720)"/><rect x="688" y="1744" width="48" height="48" transform="rotate(0,712,1768)"/><rect x="736" y="352" width="48" height="48" transform="rotate(0,760,376)"/><rect x="736" y="544" width="48" height="48" transform="rotate(0,760,568)"/><rect x="736" y="592" width="48" height="48" transform="rotate(0,760,616)"/><rect x="736" y="640" width="48" height="48" transform="rotate(0,760,664)"/><rect x="736" y="880" width="48" height="48" transform="rotate(0,760,904)"/><rect x="736" y="976" width="48" height="48" transform="rotate(0,760,1000)"/><rect x="736" y="1024" width="48" height="48" transform="rotate(0,760,1048)"/><rect x="736" y="1072" width="48" height="48" transform="rotate(0,760,1096)"/><rect x="736" y="1216" width="48" height="48" transform="rotate(0,760,1240)"/><rect x="736" y="1312" width="48" height="48" transform="rotate(0,760,1336)"/><rect x="736" y="1360" width="48" height="48" transform="rotate(0,760,1384)"/><rect x="736" y="1456" width="48" height="48" transform="rotate(0,760,1480)"/><rect x="736" y="1504" width="48" height="48" transform="rotate(0,760,1528)"/><rect x="736" y="1552" width="48" height="48" transform="rotate(0,760,1576)"/><rect x="736" y="1648" width="48" height="48" transform="rotate(0,760,1672)"/><rect x="736" y="1696" width="48" height="48" transform="rotate(0,760,1720)"/><rect x="736" y="1744" width="48" height="48" transform="rotate(0,760,1768)"/><rect x="784" y="160" width="48" height="48" transform="rotate(0,808,184)"/><rect x="784" y="208" width="48" height="48" transform="rotate(0,808,232)"/><rect x="784" y="256" width="48" height="48" transform="rotate(0,808,280)"/><rect x="784" y="400" width="48" height="48" transform="rotate(0,808,424)"/><rect x="784" y="496" width="48" height="48" transform="rotate(0,808,520)"/><rect x="784" y="544" width="48" height="48" transform="rotate(0,808,568)"/><rect x="784" y="640" width="48" height="48" transform="rotate(0,808,664)"/><rect x="784" y="688" width="48" height="48" transform="rotate(0,808,712)"/><rect x="784" y="736" width="48" height="48" transform="rotate(0,808,760)"/><rect x="784" y="832" width="48" height="48" transform="rotate(0,808,856)"/><rect x="784" y="928" width="48" height="48" transform="rotate(0,808,952)"/><rect x="784" y="1024" width="48" height="48" transform="rotate(0,808,1048)"/><rect x="784" y="1072" width="48" height="48" transform="rotate(0,808,1096)"/><rect x="784" y="1120" width="48" height="48" transform="rotate(0,808,1144)"/><rect x="784" y="1168" width="48" height="48" transform="rotate(0,808,1192)"/><rect x="784" y="1312" width="48" height="48" transform="rotate(0,808,1336)"/><rect x="784" y="1360" width="48" height="48" transform="rotate(0,808,1384)"/><rect x="784" y="1408" width="48" height="48" transform="rotate(0,808,1432)"/><rect x="784" y="1504" width="48" height="48" transform="rotate(0,808,1528)"/><rect x="784" y="1648" width="48" height="48" transform="rotate(0,808,1672)"/><rect x="784" y="1744" width="48" height="48" transform="rotate(0,808,1768)"/><rect x="784" y="1792" width="48" height="48" transform="rotate(0,808,1816)"/><rect x="784" y="1840" width="48" height="48" transform="rotate(0,808,1864)"/><rect x="832" y="112" width="48" height="48" transform="rotate(0,856,136)"/><rect x="832" y="160" width="48" height="48" transform="rotate(0,856,184)"/><rect x="832" y="208" width="48" height="48" transform="rotate(0,856,232)"/><rect x="832" y="448" width="48" height="48" transform="rotate(0,856,472)"/><rect x="832" y="688" width="48" height="48" transform="rotate(0,856,712)"/><rect x="832" y="736" width="48" height="48" transform="rotate(0,856,760)"/><rect x="832" y="784" width="48" height="48" transform="rotate(0,856,808)"/><rect x="832" y="832" width="48" height="48" transform="rotate(0,856,856)"/><rect x="832" y="928" width="48" height="48" transform="rotate(0,856,952)"/><rect x="832" y="1024" width="48" height="48" transform="rotate(0,856,1048)"/><rect x="832" y="1360" width="48" height="48" transform="rotate(0,856,1384)"/><rect x="832" y="1408" width="48" height="48" transform="rotate(0,856,1432)"/><rect x="832" y="1456" width="48" height="48" transform="rotate(0,856,1480)"/><rect x="832" y="1552" width="48" height="48" transform="rotate(0,856,1576)"/><rect x="832" y="1600" width="48" height="48" transform="rotate(0,856,1624)"/><rect x="832" y="1696" width="48" height="48" transform="rotate(0,856,1720)"/><rect x="832" y="1744" width="48" height="48" transform="rotate(0,856,1768)"/><rect x="880" y="160" width="48" height="48" transform="rotate(0,904,184)"/><rect x="880" y="208" width="48" height="48" transform="rotate(0,904,232)"/><rect x="880" y="352" width="48" height="48" transform="rotate(0,904,376)"/><rect x="880" y="400" width="48" height="48" transform="rotate(0,904,424)"/><rect x="880" y="592" width="48" height="48" transform="rotate(0,904,616)"/><rect x="880" y="640" width="48" height="48" transform="rotate(0,904,664)"/><rect x="880" y="1072" width="48" height="48" transform="rotate(0,904,1096)"/><rect x="880" y="1120" width="48" height="48" transform="rotate(0,904,1144)"/><rect x="880" y="1312" width="48" height="48" transform="rotate(0,904,1336)"/><rect x="880" y="1408" width="48" height="48" transform="rotate(0,904,1432)"/><rect x="880" y="1552" width="48" height="48" transform="rotate(0,904,1576)"/><rect x="880" y="1696" width="48" height="48" transform="rotate(0,904,1720)"/><rect x="880" y="1792" width="48" height="48" transform="rotate(0,904,1816)"/><rect x="928" y="160" width="48" height="48" transform="rotate(0,952,184)"/><rect x="928" y="544" width="48" height="48" transform="rotate(0,952,568)"/><rect x="928" y="736" width="48" height="48" transform="rotate(0,952,760)"/><rect x="928" y="784" width="48" height="48" transform="rotate(0,952,808)"/><rect x="928" y="928" width="48" height="48" transform="rotate(0,952,952)"/><rect x="928" y="1216" width="48" height="48" transform="rotate(0,952,1240)"/><rect x="928" y="1264" width="48" height="48" transform="rotate(0,952,1288)"/><rect x="928" y="1408" width="48" height="48" transform="rotate(0,952,1432)"/><rect x="928" y="1504" width="48" height="48" transform="rotate(0,952,1528)"/><rect x="928" y="1600" width="48" height="48" transform="rotate(0,952,1624)"/><rect x="928" y="1744" width="48" height="48" transform="rotate(0,952,1768)"/><rect x="928" y="1792" width="48" height="48" transform="rotate(0,952,1816)"/><rect x="928" y="1840" width="48" height="48" transform="rotate(0,952,1864)"/><rect x="976" y="208" width="48" height="48" transform="rotate(0,1000,232)"/><rect x="976" y="256" width="48" height="48" transform="rotate(0,1000,280)"/><rect x="976" y="304" width="48" height="48" transform="rotate(0,1000,328)"/><rect x="976" y="352" width="48" height="48" transform="rotate(0,1000,376)"/><rect x="976" y="400" width="48" height="48" transform="rotate(0,1000,424)"/><rect x="976" y="544" width="48" height="48" transform="rotate(0,1000,568)"/><rect x="976" y="784" width="48" height="48" transform="rotate(0,1000,808)"/><rect x="976" y="928" width="48" height="48" transform="rotate(0,1000,952)"/><rect x="976" y="1072" width="48" height="48" transform="rotate(0,1000,1096)"/><rect x="976" y="1168" width="48" height="48" transform="rotate(0,1000,1192)"/><rect x="976" y="1216" width="48" height="48" transform="rotate(0,1000,1240)"/><rect x="976" y="1360" width="48" height="48" transform="rotate(0,1000,1384)"/><rect x="976" y="1408" width="48" height="48" transform="rotate(0,1000,1432)"/><rect x="976" y="1456" width="48" height="48" transform="rotate(0,1000,1480)"/><rect x="976" y="1600" width="48" height="48" transform="rotate(0,1000,1624)"/><rect x="976" y="1744" width="48" height="48" transform="rotate(0,1000,1768)"/><rect x="976" y="1840" width="48" height="48" transform="rotate(0,1000,1864)"/><rect x="1024" y="112" width="48" height="48" transform="rotate(0,1048,136)"/><rect x="1024" y="256" width="48" height="48" transform="rotate(0,1048,280)"/><rect x="1024" y="352" width="48" height="48" transform="rotate(0,1048,376)"/><rect x="1024" y="592" width="48" height="48" transform="rotate(0,1048,616)"/><rect x="1024" y="640" width="48" height="48" transform="rotate(0,1048,664)"/><rect x="1024" y="688" width="48" height="48" transform="rotate(0,1048,712)"/><rect x="1024" y="736" width="48" height="48" transform="rotate(0,1048,760)"/><rect x="1024" y="784" width="48" height="48" transform="rotate(0,1048,808)"/><rect x="1024" y="976" width="48" height="48" transform="rotate(0,1048,1000)"/><rect x="1024" y="1024" width="48" height="48" transform="rotate(0,1048,1048)"/><rect x="1024" y="1072" width="48" height="48" transform="rotate(0,1048,1096)"/><rect x="1024" y="1264" width="48" height="48" transform="rotate(0,1048,1288)"/><rect x="1024" y="1312" width="48" height="48" transform="rotate(0,1048,1336)"/><rect x="1024" y="1360" width="48" height="48" transform="rotate(0,1048,1384)"/><rect x="1024" y="1408" width="48" height="48" transform="rotate(0,1048,1432)"/><rect x="1024" y="1504" width="48" height="48" transform="rotate(0,1048,1528)"/><rect x="1024" y="1552" width="48" height="48" transform="rotate(0,1048,1576)"/><rect x="1024" y="1696" width="48" height="48" transform="rotate(0,1048,1720)"/><rect x="1024" y="1840" width="48" height="48" transform="rotate(0,1048,1864)"/><rect x="1072" y="160" width="48" height="48" transform="rotate(0,1096,184)"/><rect x="1072" y="256" width="48" height="48" transform="rotate(0,1096,280)"/><rect x="1072" y="304" width="48" height="48" transform="rotate(0,1096,328)"/><rect x="1072" y="400" width="48" height="48" transform="rotate(0,1096,424)"/><rect x="1072" y="448" width="48" height="48" transform="rotate(0,1096,472)"/><rect x="1072" y="592" width="48" height="48" transform="rotate(0,1096,616)"/><rect x="1072" y="640" width="48" height="48" transform="rotate(0,1096,664)"/><rect x="1072" y="784" width="48" height="48" transform="rotate(0,1096,808)"/><rect x="1072" y="928" width="48" height="48" transform="rotate(0,1096,952)"/><rect x="1072" y="976" width="48" height="48" transform="rotate(0,1096,1000)"/><rect x="1072" y="1072" width="48" height="48" transform="rotate(0,1096,1096)"/><rect x="1072" y="1264" width="48" height="48" transform="rotate(0,1096,1288)"/><rect x="1072" y="1552" width="48" height="48" transform="rotate(0,1096,1576)"/><rect x="1072" y="1600" width="48" height="48" transform="rotate(0,1096,1624)"/><rect x="1072" y="1792" width="48" height="48" transform="rotate(0,1096,1816)"/><rect x="1072" y="1840" width="48" height="48" transform="rotate(0,1096,1864)"/><rect x="1120" y="112" width="48" height="48" transform="rotate(0,1144,136)"/><rect x="1120" y="448" width="48" height="48" transform="rotate(0,1144,472)"/><rect x="1120" y="544" width="48" height="48" transform="rotate(0,1144,568)"/><rect x="1120" y="592" width="48" height="48" transform="rotate(0,1144,616)"/><rect x="1120" y="640" width="48" height="48" transform="rotate(0,1144,664)"/><rect x="1120" y="688" width="48" height="48" transform="rotate(0,1144,712)"/><rect x="1120" y="880" width="48" height="48" transform="rotate(0,1144,904)"/><rect x="1120" y="976" width="48" height="48" transform="rotate(0,1144,1000)"/><rect x="1120" y="1072" width="48" height="48" transform="rotate(0,1144,1096)"/><rect x="1120" y="1168" width="48" height="48" transform="rotate(0,1144,1192)"/><rect x="1120" y="1216" width="48" height="48" transform="rotate(0,1144,1240)"/><rect x="1120" y="1408" width="48" height="48" transform="rotate(0,1144,1432)"/><rect x="1120" y="1456" width="48" height="48" transform="rotate(0,1144,1480)"/><rect x="1120" y="1504" width="48" height="48" transform="rotate(0,1144,1528)"/><rect x="1120" y="1600" width="48" height="48" transform="rotate(0,1144,1624)"/><rect x="1120" y="1648" width="48" height="48" transform="rotate(0,1144,1672)"/><rect x="1120" y="1696" width="48" height="48" transform="rotate(0,1144,1720)"/><rect x="1120" y="1840" width="48" height="48" transform="rotate(0,1144,1864)"/><rect x="1168" y="208" width="48" height="48" transform="rotate(0,1192,232)"/><rect x="1168" y="256" width="48" height="48" transform="rotate(0,1192,280)"/><rect x="1168" y="352" width="48" height="48" transform="rotate(0,1192,376)"/><rect x="1168" y="400" width="48" height="48" transform="rotate(0,1192,424)"/><rect x="1168" y="496" width="48" height="48" transform="rotate(0,1192,520)"/><rect x="1168" y="544" width="48" height="48" transform="rotate(0,1192,568)"/><rect x="1168" y="592" width="48" height="48" transform="rotate(0,1192,616)"/><rect x="1168" y="880" width="48" height="48" transform="rotate(0,1192,904)"/><rect x="1168" y="928" width="48" height="48" transform="rotate(0,1192,952)"/><rect x="1168" y="976" width="48" height="48" transform="rotate(0,1192,1000)"/><rect x="1168" y="1024" width="48" height="48" transform="rotate(0,1192,1048)"/><rect x="1168" y="1072" width="48" height="48" transform="rotate(0,1192,1096)"/><rect x="1168" y="1120" width="48" height="48" transform="rotate(0,1192,1144)"/><rect x="1168" y="1216" width="48" height="48" transform="rotate(0,1192,1240)"/><rect x="1168" y="1360" width="48" height="48" transform="rotate(0,1192,1384)"/><rect x="1168" y="1408" width="48" height="48" transform="rotate(0,1192,1432)"/><rect x="1168" y="1456" width="48" height="48" transform="rotate(0,1192,1480)"/><rect x="1168" y="1504" width="48" height="48" transform="rotate(0,1192,1528)"/><rect x="1168" y="1648" width="48" height="48" transform="rotate(0,1192,1672)"/><rect x="1168" y="1696" width="48" height="48" transform="rotate(0,1192,1720)"/><rect x="1168" y="1744" width="48" height="48" transform="rotate(0,1192,1768)"/><rect x="1168" y="1840" width="48" height="48" transform="rotate(0,1192,1864)"/><rect x="1216" y="112" width="48" height="48" transform="rotate(0,1240,136)"/><rect x="1216" y="352" width="48" height="48" transform="rotate(0,1240,376)"/><rect x="1216" y="544" width="48" height="48" transform="rotate(0,1240,568)"/><rect x="1216" y="640" width="48" height="48" transform="rotate(0,1240,664)"/><rect x="1216" y="688" width="48" height="48" transform="rotate(0,1240,712)"/><rect x="1216" y="736" width="48" height="48" transform="rotate(0,1240,760)"/><rect x="1216" y="784" width="48" height="48" transform="rotate(0,1240,808)"/><rect x="1216" y="832" width="48" height="48" transform="rotate(0,1240,856)"/><rect x="1216" y="1216" width="48" height="48" transform="rotate(0,1240,1240)"/><rect x="1216" y="1360" width="48" height="48" transform="rotate(0,1240,1384)"/><rect x="1216" y="1408" width="48" height="48" transform="rotate(0,1240,1432)"/><rect x="1216" y="1504" width="48" height="48" transform="rotate(0,1240,1528)"/><rect x="1216" y="1600" width="48" height="48" transform="rotate(0,1240,1624)"/><rect x="1216" y="1696" width="48" height="48" transform="rotate(0,1240,1720)"/><rect x="1216" y="1744" width="48" height="48" transform="rotate(0,1240,1768)"/><rect x="1264" y="160" width="48" height="48" transform="rotate(0,1288,184)"/><rect x="1264" y="208" width="48" height="48" transform="rotate(0,1288,232)"/><rect x="1264" y="304" width="48" height="48" transform="rotate(0,1288,328)"/><rect x="1264" y="352" width="48" height="48" transform="rotate(0,1288,376)"/><rect x="1264" y="400" width="48" height="48" transform="rotate(0,1288,424)"/><rect x="1264" y="544" width="48" height="48" transform="rotate(0,1288,568)"/><rect x="1264" y="736" width="48" height="48" transform="rotate(0,1288,760)"/><rect x="1264" y="784" width="48" height="48" transform="rotate(0,1288,808)"/><rect x="1264" y="832" width="48" height="48" transform="rotate(0,1288,856)"/><rect x="1264" y="880" width="48" height="48" transform="rotate(0,1288,904)"/><rect x="1264" y="1072" width="48" height="48" transform="rotate(0,1288,1096)"/><rect x="1264" y="1216" width="48" height="48" transform="rotate(0,1288,1240)"/><rect x="1264" y="1264" width="48" height="48" transform="rotate(0,1288,1288)"/><rect x="1264" y="1312" width="48" height="48" transform="rotate(0,1288,1336)"/><rect x="1264" y="1360" width="48" height="48" transform="rotate(0,1288,1384)"/><rect x="1264" y="1408" width="48" height="48" transform="rotate(0,1288,1432)"/><rect x="1264" y="1504" width="48" height="48" transform="rotate(0,1288,1528)"/><rect x="1264" y="1552" width="48" height="48" transform="rotate(0,1288,1576)"/><rect x="1264" y="1648" width="48" height="48" transform="rotate(0,1288,1672)"/><rect x="1264" y="1696" width="48" height="48" transform="rotate(0,1288,1720)"/><rect x="1264" y="1792" width="48" height="48" transform="rotate(0,1288,1816)"/><rect x="1312" y="112" width="48" height="48" transform="rotate(0,1336,136)"/><rect x="1312" y="304" width="48" height="48" transform="rotate(0,1336,328)"/><rect x="1312" y="352" width="48" height="48" transform="rotate(0,1336,376)"/><rect x="1312" y="448" width="48" height="48" transform="rotate(0,1336,472)"/><rect x="1312" y="496" width="48" height="48" transform="rotate(0,1336,520)"/><rect x="1312" y="640" width="48" height="48" transform="rotate(0,1336,664)"/><rect x="1312" y="736" width="48" height="48" transform="rotate(0,1336,760)"/><rect x="1312" y="784" width="48" height="48" transform="rotate(0,1336,808)"/><rect x="1312" y="832" width="48" height="48" transform="rotate(0,1336,856)"/><rect x="1312" y="1024" width="48" height="48" transform="rotate(0,1336,1048)"/><rect x="1312" y="1120" width="48" height="48" transform="rotate(0,1336,1144)"/><rect x="1312" y="1216" width="48" height="48" transform="rotate(0,1336,1240)"/><rect x="1312" y="1408" width="48" height="48" transform="rotate(0,1336,1432)"/><rect x="1312" y="1504" width="48" height="48" transform="rotate(0,1336,1528)"/><rect x="1312" y="1648" width="48" height="48" transform="rotate(0,1336,1672)"/><rect x="1312" y="1696" width="48" height="48" transform="rotate(0,1336,1720)"/><rect x="1312" y="1744" width="48" height="48" transform="rotate(0,1336,1768)"/><rect x="1360" y="112" width="48" height="48" transform="rotate(0,1384,136)"/><rect x="1360" y="160" width="48" height="48" transform="rotate(0,1384,184)"/><rect x="1360" y="208" width="48" height="48" transform="rotate(0,1384,232)"/><rect x="1360" y="256" width="48" height="48" transform="rotate(0,1384,280)"/><rect x="1360" y="304" width="48" height="48" transform="rotate(0,1384,328)"/><rect x="1360" y="400" width="48" height="48" transform="rotate(0,1384,424)"/><rect x="1360" y="640" width="48" height="48" transform="rotate(0,1384,664)"/><rect x="1360" y="784" width="48" height="48" transform="rotate(0,1384,808)"/><rect x="1360" y="832" width="48" height="48" transform="rotate(0,1384,856)"/><rect x="1360" y="880" width="48" height="48" transform="rotate(0,1384,904)"/><rect x="1360" y="928" width="48" height="48" transform="rotate(0,1384,952)"/><rect x="1360" y="976" width="48" height="48" transform="rotate(0,1384,1000)"/><rect x="1360" y="1072" width="48" height="48" transform="rotate(0,1384,1096)"/><rect x="1360" y="1120" width="48" height="48" transform="rotate(0,1384,1144)"/><rect x="1360" y="1168" width="48" height="48" transform="rotate(0,1384,1192)"/><rect x="1360" y="1264" width="48" height="48" transform="rotate(0,1384,1288)"/><rect x="1360" y="1360" width="48" height="48" transform="rotate(0,1384,1384)"/><rect x="1360" y="1408" width="48" height="48" transform="rotate(0,1384,1432)"/><rect x="1360" y="1552" width="48" height="48" transform="rotate(0,1384,1576)"/><rect x="1360" y="1600" width="48" height="48" transform="rotate(0,1384,1624)"/><rect x="1360" y="1792" width="48" height="48" transform="rotate(0,1384,1816)"/><rect x="1360" y="1840" width="48" height="48" transform="rotate(0,1384,1864)"/><rect x="1408" y="112" width="48" height="48" transform="rotate(0,1432,136)"/><rect x="1408" y="256" width="48" height="48" transform="rotate(0,1432,280)"/><rect x="1408" y="304" width="48" height="48" transform="rotate(0,1432,328)"/><rect x="1408" y="352" width="48" height="48" transform="rotate(0,1432,376)"/><rect x="1408" y="592" width="48" height="48" transform="rotate(0,1432,616)"/><rect x="1408" y="640" width="48" height="48" transform="rotate(0,1432,664)"/><rect x="1408" y="736" width="48" height="48" transform="rotate(0,1432,760)"/><rect x="1408" y="928" width="48" height="48" transform="rotate(0,1432,952)"/><rect x="1408" y="976" width="48" height="48" transform="rotate(0,1432,1000)"/><rect x="1408" y="1264" width="48" height="48" transform="rotate(0,1432,1288)"/><rect x="1408" y="1408" width="48" height="48" transform="rotate(0,1432,1432)"/><rect x="1408" y="1456" width="48" height="48" transform="rotate(0,1432,1480)"/><rect x="1408" y="1504" width="48" height="48" transform="rotate(0,1432,1528)"/><rect x="1408" y="1600" width="48" height="48" transform="rotate(0,1432,1624)"/><rect x="1408" y="1648" width="48" height="48" transform="rotate(0,1432,1672)"/><rect x="1408" y="1696" width="48" height="48" transform="rotate(0,1432,1720)"/><rect x="1408" y="1744" width="48" height="48" transform="rotate(0,1432,1768)"/><rect x="1408" y="1792" width="48" height="48" transform="rotate(0,1432,1816)"/><rect x="1408" y="1840" width="48" height="48" transform="rotate(0,1432,1864)"/><rect x="1456" y="112" width="48" height="48" transform="rotate(0,1480,136)"/><rect x="1456" y="208" width="48" height="48" transform="rotate(0,1480,232)"/><rect x="1456" y="400" width="48" height="48" transform="rotate(0,1480,424)"/><rect x="1456" y="496" width="48" height="48" transform="rotate(0,1480,520)"/><rect x="1456" y="592" width="48" height="48" transform="rotate(0,1480,616)"/><rect x="1456" y="784" width="48" height="48" transform="rotate(0,1480,808)"/><rect x="1456" y="880" width="48" height="48" transform="rotate(0,1480,904)"/><rect x="1456" y="976" width="48" height="48" transform="rotate(0,1480,1000)"/><rect x="1456" y="1024" width="48" height="48" transform="rotate(0,1480,1048)"/><rect x="1456" y="1168" width="48" height="48" transform="rotate(0,1480,1192)"/><rect x="1456" y="1216" width="48" height="48" transform="rotate(0,1480,1240)"/><rect x="1456" y="1264" width="48" height="48" transform="rotate(0,1480,1288)"/><rect x="1456" y="1312" width="48" height="48" transform="rotate(0,1480,1336)"/><rect x="1456" y="1360" width="48" height="48" transform="rotate(0,1480,1384)"/><rect x="1456" y="1456" width="48" height="48" transform="rotate(0,1480,1480)"/><rect x="1456" y="1504" width="48" height="48" transform="rotate(0,1480,1528)"/><rect x="1456" y="1552" width="48" height="48" transform="rotate(0,1480,1576)"/><rect x="1456" y="1600" width="48" height="48" transform="rotate(0,1480,1624)"/><rect x="1456" y="1648" width="48" height="48" transform="rotate(0,1480,1672)"/><rect x="1456" y="1696" width="48" height="48" transform="rotate(0,1480,1720)"/><rect x="1456" y="1792" width="48" height="48" transform="rotate(0,1480,1816)"/><rect x="1504" y="496" width="48" height="48" transform="rotate(0,1528,520)"/><rect x="1504" y="544" width="48" height="48" transform="rotate(0,1528,568)"/><rect x="1504" y="592" width="48" height="48" transform="rotate(0,1528,616)"/><rect x="1504" y="784" width="48" height="48" transform="rotate(0,1528,808)"/><rect x="1504" y="880" width="48" height="48" transform="rotate(0,1528,904)"/><rect x="1504" y="1024" width="48" height="48" transform="rotate(0,1528,1048)"/><rect x="1504" y="1072" width="48" height="48" transform="rotate(0,1528,1096)"/><rect x="1504" y="1120" width="48" height="48" transform="rotate(0,1528,1144)"/><rect x="1504" y="1168" width="48" height="48" transform="rotate(0,1528,1192)"/><rect x="1504" y="1360" width="48" height="48" transform="rotate(0,1528,1384)"/><rect x="1504" y="1408" width="48" height="48" transform="rotate(0,1528,1432)"/><rect x="1504" y="1456" width="48" height="48" transform="rotate(0,1528,1480)"/><rect x="1504" y="1648" width="48" height="48" transform="rotate(0,1528,1672)"/><rect x="1504" y="1744" width="48" height="48" transform="rotate(0,1528,1768)"/><rect x="1504" y="1792" width="48" height="48" transform="rotate(0,1528,1816)"/><rect x="1552" y="544" width="48" height="48" transform="rotate(0,1576,568)"/><rect x="1552" y="592" width="48" height="48" transform="rotate(0,1576,616)"/><rect x="1552" y="784" width="48" height="48" transform="rotate(0,1576,808)"/><rect x="1552" y="928" width="48" height="48" transform="rotate(0,1576,952)"/><rect x="1552" y="1024" width="48" height="48" transform="rotate(0,1576,1048)"/><rect x="1552" y="1216" width="48" height="48" transform="rotate(0,1576,1240)"/><rect x="1552" y="1264" width="48" height="48" transform="rotate(0,1576,1288)"/><rect x="1552" y="1312" width="48" height="48" transform="rotate(0,1576,1336)"/><rect x="1552" y="1360" width="48" height="48" transform="rotate(0,1576,1384)"/><rect x="1552" y="1408" width="48" height="48" transform="rotate(0,1576,1432)"/><rect x="1552" y="1456" width="48" height="48" transform="rotate(0,1576,1480)"/><rect x="1552" y="1552" width="48" height="48" transform="rotate(0,1576,1576)"/><rect x="1552" y="1648" width="48" height="48" transform="rotate(0,1576,1672)"/><rect x="1552" y="1744" width="48" height="48" transform="rotate(0,1576,1768)"/><rect x="1552" y="1840" width="48" height="48" transform="rotate(0,1576,1864)"/><rect x="1600" y="496" width="48" height="48" transform="rotate(0,1624,520)"/><rect x="1600" y="592" width="48" height="48" transform="rotate(0,1624,616)"/><rect x="1600" y="640" width="48" height="48" transform="rotate(0,1624,664)"/><rect x="1600" y="688" width="48" height="48" transform="rotate(0,1624,712)"/><rect x="1600" y="736" width="48" height="48" transform="rotate(0,1624,760)"/><rect x="1600" y="784" width="48" height="48" transform="rotate(0,1624,808)"/><rect x="1600" y="976" width="48" height="48" transform="rotate(0,1624,1000)"/><rect x="1600" y="1120" width="48" height="48" transform="rotate(0,1624,1144)"/><rect x="1600" y="1216" width="48" height="48" transform="rotate(0,1624,1240)"/><rect x="1600" y="1264" width="48" height="48" transform="rotate(0,1624,1288)"/><rect x="1600" y="1312" width="48" height="48" transform="rotate(0,1624,1336)"/><rect x="1600" y="1408" width="48" height="48" transform="rotate(0,1624,1432)"/><rect x="1600" y="1456" width="48" height="48" transform="rotate(0,1624,1480)"/><rect x="1600" y="1648" width="48" height="48" transform="rotate(0,1624,1672)"/><rect x="1600" y="1696" width="48" height="48" transform="rotate(0,1624,1720)"/><rect x="1600" y="1792" width="48" height="48" transform="rotate(0,1624,1816)"/><rect x="1648" y="496" width="48" height="48" transform="rotate(0,1672,520)"/><rect x="1648" y="544" width="48" height="48" transform="rotate(0,1672,568)"/><rect x="1648" y="640" width="48" height="48" transform="rotate(0,1672,664)"/><rect x="1648" y="688" width="48" height="48" transform="rotate(0,1672,712)"/><rect x="1648" y="784" width="48" height="48" transform="rotate(0,1672,808)"/><rect x="1648" y="1024" width="48" height="48" transform="rotate(0,1672,1048)"/><rect x="1648" y="1072" width="48" height="48" transform="rotate(0,1672,1096)"/><rect x="1648" y="1120" width="48" height="48" transform="rotate(0,1672,1144)"/><rect x="1648" y="1216" width="48" height="48" transform="rotate(0,1672,1240)"/><rect x="1648" y="1264" width="48" height="48" transform="rotate(0,1672,1288)"/><rect x="1648" y="1312" width="48" height="48" transform="rotate(0,1672,1336)"/><rect x="1648" y="1360" width="48" height="48" transform="rotate(0,1672,1384)"/><rect x="1648" y="1408" width="48" height="48" transform="rotate(0,1672,1432)"/><rect x="1648" y="1456" width="48" height="48" transform="rotate(0,1672,1480)"/><rect x="1648" y="1504" width="48" height="48" transform="rotate(0,1672,1528)"/><rect x="1648" y="1552" width="48" height="48" transform="rotate(0,1672,1576)"/><rect x="1648" y="1600" width="48" height="48" transform="rotate(0,1672,1624)"/><rect x="1648" y="1648" width="48" height="48" transform="rotate(0,1672,1672)"/><rect x="1648" y="1744" width="48" height="48" transform="rotate(0,1672,1768)"/><rect x="1696" y="496" width="48" height="48" transform="rotate(0,1720,520)"/><rect x="1696" y="688" width="48" height="48" transform="rotate(0,1720,712)"/><rect x="1696" y="736" width="48" height="48" transform="rotate(0,1720,760)"/><rect x="1696" y="880" width="48" height="48" transform="rotate(0,1720,904)"/><rect x="1696" y="928" width="48" height="48" transform="rotate(0,1720,952)"/><rect x="1696" y="1072" width="48" height="48" transform="rotate(0,1720,1096)"/><rect x="1696" y="1120" width="48" height="48" transform="rotate(0,1720,1144)"/><rect x="1696" y="1168" width="48" height="48" transform="rotate(0,1720,1192)"/><rect x="1696" y="1312" width="48" height="48" transform="rotate(0,1720,1336)"/><rect x="1696" y="1360" width="48" height="48" transform="rotate(0,1720,1384)"/><rect x="1696" y="1408" width="48" height="48" transform="rotate(0,1720,1432)"/><rect x="1696" y="1504" width="48" height="48" transform="rotate(0,1720,1528)"/><rect x="1696" y="1552" width="48" height="48" transform="rotate(0,1720,1576)"/><rect x="1696" y="1792" width="48" height="48" transform="rotate(0,1720,1816)"/><rect x="1744" y="784" width="48" height="48" transform="rotate(0,1768,808)"/><rect x="1744" y="832" width="48" height="48" transform="rotate(0,1768,856)"/><rect x="1744" y="880" width="48" height="48" transform="rotate(0,1768,904)"/><rect x="1744" y="928" width="48" height="48" transform="rotate(0,1768,952)"/><rect x="1744" y="976" width="48" height="48" transform="rotate(0,1768,1000)"/><rect x="1744" y="1120" width="48" height="48" transform="rotate(0,1768,1144)"/><rect x="1744" y="1168" width="48" height="48" transform="rotate(0,1768,1192)"/><rect x="1744" y="1264" width="48" height="48" transform="rotate(0,1768,1288)"/><rect x="1744" y="1312" width="48" height="48" transform="rotate(0,1768,1336)"/><rect x="1744" y="1360" width="48" height="48" transform="rotate(0,1768,1384)"/><rect x="1744" y="1408" width="48" height="48" transform="rotate(0,1768,1432)"/><rect x="1744" y="1456" width="48" height="48" transform="rotate(0,1768,1480)"/><rect x="1744" y="1504" width="48" height="48" transform="rotate(0,1768,1528)"/><rect x="1744" y="1552" width="48" height="48" transform="rotate(0,1768,1576)"/><rect x="1744" y="1600" width="48" height="48" transform="rotate(0,1768,1624)"/><rect x="1744" y="1648" width="48" height="48" transform="rotate(0,1768,1672)"/><rect x="1744" y="1792" width="48" height="48" transform="rotate(0,1768,1816)"/><rect x="1744" y="1840" width="48" height="48" transform="rotate(0,1768,1864)"/><rect x="1792" y="496" width="48" height="48" transform="rotate(0,1816,520)"/><rect x="1792" y="592" width="48" height="48" transform="rotate(0,1816,616)"/><rect x="1792" y="688" width="48" height="48" transform="rotate(0,1816,712)"/><rect x="1792" y="928" width="48" height="48" transform="rotate(0,1816,952)"/><rect x="1792" y="976" width="48" height="48" transform="rotate(0,1816,1000)"/><rect x="1792" y="1168" width="48" height="48" transform="rotate(0,1816,1192)"/><rect x="1792" y="1504" width="48" height="48" transform="rotate(0,1816,1528)"/><rect x="1792" y="1552" width="48" height="48" transform="rotate(0,1816,1576)"/><rect x="1792" y="1600" width="48" height="48" transform="rotate(0,1816,1624)"/><rect x="1792" y="1648" width="48" height="48" transform="rotate(0,1816,1672)"/><rect x="1792" y="1744" width="48" height="48" transform="rotate(0,1816,1768)"/><rect x="1792" y="1792" width="48" height="48" transform="rotate(0,1816,1816)"/><rect x="1792" y="1840" width="48" height="48" transform="rotate(0,1816,1864)"/><rect x="1840" y="592" width="48" height="48" transform="rotate(0,1864,616)"/><rect x="1840" y="640" width="48" height="48" transform="rotate(0,1864,664)"/><rect x="1840" y="688" width="48" height="48" transform="rotate(0,1864,712)"/><rect x="1840" y="784" width="48" height="48" transform="rotate(0,1864,808)"/><rect x="1840" y="832" width="48" height="48" transform="rotate(0,1864,856)"/><rect x="1840" y="928" width="48" height="48" transform="rotate(0,1864,952)"/><rect x="1840" y="1024" width="48" height="48" transform="rotate(0,1864,1048)"/><rect x="1840" y="1168" width="48" height="48" transform="rotate(0,1864,1192)"/><rect x="1840" y="1264" width="48" height="48" transform="rotate(0,1864,1288)"/><rect x="1840" y="1312" width="48" height="48" transform="rotate(0,1864,1336)"/><rect x="1840" y="1456" width="48" height="48" transform="rotate(0,1864,1480)"/><rect x="1840" y="1552" width="48" height="48" transform="rotate(0,1864,1576)"/><rect x="1840" y="1600" width="48" height="48" transform="rotate(0,1864,1624)"/><rect x="1840" y="1648" width="48" height="48" transform="rotate(0,1864,1672)"/><rect x="1840" y="1696" width="48" height="48" transform="rotate(0,1864,1720)"/><rect x="1840" y="1840" width="48" height="48" transform="rotate(0,1864,1864)"/></clipPath><clipPath id="clip-path-corners-square-color-0-0"><rect x="112" y="112" width="48" height="48" transform="rotate(0,136,136)"/><rect x="112" y="160" width="48" height="48" transform="rotate(0,136,184)"/><rect x="112" y="208" width="48" height="48" transform="rotate(0,136,232)"/><rect x="112" y="256" width="48" height="48" transform="rotate(0,136,280)"/><rect x="112" y="304" width="48" height="48" transform="rotate(0,136,328)"/><rect x="112" y="352" width="48" height="48" transform="rotate(0,136,376)"/><rect x="112" y="400" width="48" height="48" transform="rotate(0,136,424)"/><rect x="160" y="112" width="48" height="48" transform="rotate(0,184,136)"/><rect x="160" y="400" width="48" height="48" transform="rotate(0,184,424)"/><rect x="208" y="112" width="48" height="48" transform="rotate(0,232,136)"/><rect x="208" y="400" width="48" height="48" transform="rotate(0,232,424)"/><rect x="256" y="112" width="48" height="48" transform="rotate(0,280,136)"/><rect x="256" y="400" width="48" height="48" transform="rotate(0,280,424)"/><rect x="304" y="112" width="48" height="48" transform="rotate(0,328,136)"/><rect x="304" y="400" width="48" height="48" transform="rotate(0,328,424)"/><rect x="352" y="112" width="48" height="48" transform="rotate(0,376,136)"/><rect x="352" y="400" width="48" height="48" transform="rotate(0,376,424)"/><rect x="400" y="112" width="48" height="48" transform="rotate(0,424,136)"/><rect x="400" y="160" width="48" height="48" transform="rotate(0,424,184)"/><rect x="400" y="208" width="48" height="48" transform="rotate(0,424,232)"/><rect x="400" y="256" width="48" height="48" transform="rotate(0,424,280)"/><rect x="400" y="304" width="48" height="48" transform="rotate(0,424,328)"/><rect x="400" y="352" width="48" height="48" transform="rotate(0,424,376)"/><rect x="400" y="400" width="48" height="48" transform="rotate(0,424,424)"/></clipPath><clipPath id="clip-path-corners-dot-color-0-0"><rect x="208" y="208" width="48" height="48" transform="rotate(0,232,232)"/><rect x="208" y="256" width="48" height="48" transform="rotate(0,232,280)"/><rect x="208" y="304" width="48" height="48" transform="rotate(0,232,328)"/><rect x="256" y="208" width="48" height="48" transform="rotate(0,280,232)"/><rect x="256" y="256" width="48" height="48" transform="rotate(0,280,280)"/><rect x="256" y="304" width="48" height="48" transform="rotate(0,280,328)"/><rect x="304" y="208" width="48" height="48" transform="rotate(0,328,232)"/><rect x="304" y="256" width="48" height="48" transform="rotate(0,328,280)"/><rect x="304" y="304" width="48" height="48" transform="rotate(0,328,328)"/></clipPath><clipPath id="clip-path-corners-square-color-1-0"><rect x="1552" y="112" width="48" height="48" transform="rotate(0,1576,136)"/><rect x="1552" y="160" width="48" height="48" transform="rotate(0,1576,184)"/><rect x="1552" y="208" width="48" height="48" transform="rotate(0,1576,232)"/><rect x="1552" y="256" width="48" height="48" transform="rotate(0,1576,280)"/><rect x="1552" y="304" width="48" height="48" transform="rotate(0,1576,328)"/><rect x="1552" y="352" width="48" height="48" transform="rotate(0,1576,376)"/><rect x="1552" y="400" width="48" height="48" transform="rotate(0,1576,424)"/><rect x="1600" y="112" width="48" height="48" transform="rotate(0,1624,136)"/><rect x="1600" y="400" width="48" height="48" transform="rotate(0,1624,424)"/><rect x="1648" y="112" width="48" height="48" transform="rotate(0,1672,136)"/><rect x="1648" y="400" width="48" height="48" transform="rotate(0,1672,424)"/><rect x="1696" y="112" width="48" height="48" transform="rotate(0,1720,136)"/><rect x="1696" y="400" width="48" height="48" transform="rotate(0,1720,424)"/><rect x="1744" y="112" width="48" height="48" transform="rotate(0,1768,136)"/><rect x="1744" y="400" width="48" height="48" transform="rotate(0,1768,424)"/><rect x="1792" y="112" width="48" height="48" transform="rotate(0,1816,136)"/><rect x="1792" y="400" width="48" height="48" transform="rotate(0,1816,424)"/><rect x="1840" y="112" width="48" height="48" transform="rotate(0,1864,136)"/><rect x="1840" y="160" width="48" height="48" transform="rotate(0,1864,184)"/><rect x="1840" y="208" width="48" height="48" transform="rotate(0,1864,232)"/><rect x="1840" y="256" width="48" height="48" transform="rotate(0,1864,280)"/><rect x="1840" y="304" width="48" height="48" transform="rotate(0,1864,328)"/><rect x="1840" y="352" width="48" height="48" transform="rotate(0,1864,376)"/><rect x="1840" y="400" width="48" height="48" transform="rotate(0,1864,424)"/></clipPath><clipPath id="clip-path-corners-dot-color-1-0"><rect x="1648" y="208" width="48" height="48" transform="rotate(0,1672,232)"/><rect x="1648" y="256" width="48" height="48" transform="rotate(0,1672,280)"/><rect x="1648" y="304" width="48" height="48" transform="rotate(0,1672,328)"/><rect x="1696" y="208" width="48" height="48" transform="rotate(0,1720,232)"/><rect x="1696" y="256" width="48" height="48" transform="rotate(0,1720,280)"/><rect x="1696" y="304" width="48" height="48" transform="rotate(0,1720,328)"/><rect x="1744" y="208" width="48" height="48" transform="rotate(0,1768,232)"/><rect x="1744" y="256" width="48" height="48" transform="rotate(0,1768,280)"/><rect x="1744" y="304" width="48" height="48" transform="rotate(0,1768,328)"/></clipPath><clipPath id="clip-path-corners-square-color-0-1"><rect x="112" y="1552" width="48" height="48" transform="rotate(0,136,1576)"/><rect x="112" y="1600" width="48" height="48" transform="rotate(0,136,1624)"/><rect x="112" y="1648" width="48" height="48" transform="rotate(0,136,1672)"/><rect x="112" y="1696" width="48" height="48" transform="rotate(0,136,1720)"/><rect x="112" y="1744" width="48" height="48" transform="rotate(0,136,1768)"/><rect x="112" y="1792" width="48" height="48" transform="rotate(0,136,1816)"/><rect x="112" y="1840" width="48" height="48" transform="rotate(0,136,1864)"/><rect x="160" y="1552" width="48" height="48" transform="rotate(0,184,1576)"/><rect x="160" y="1840" width="48" height="48" transform="rotate(0,184,1864)"/><rect x="208" y="1552" width="48" height="48" transform="rotate(0,232,1576)"/><rect x="208" y="1840" width="48" height="48" transform="rotate(0,232,1864)"/><rect x="256" y="1552" width="48" height="48" transform="rotate(0,280,1576)"/><rect x="256" y="1840" width="48" height="48" transform="rotate(0,280,1864)"/><rect x="304" y="1552" width="48" height="48" transform="rotate(0,328,1576)"/><rect x="304" y="1840" width="48" height="48" transform="rotate(0,328,1864)"/><rect x="352" y="1552" width="48" height="48" transform="rotate(0,376,1576)"/><rect x="352" y="1840" width="48" height="48" transform="rotate(0,376,1864)"/><rect x="400" y="1552" width="48" height="48" transform="rotate(0,424,1576)"/><rect x="400" y="1600" width="48" height="48" transform="rotate(0,424,1624)"/><rect x="400" y="1648" width="48" height="48" transform="rotate(0,424,1672)"/><rect x="400" y="1696" width="48" height="48" transform="rotate(0,424,1720)"/><rect x="400" y="1744" width="48" height="48" transform="rotate(0,424,1768)"/><rect x="400" y="1792" width="48" height="48" transform="rotate(0,424,1816)"/><rect x="400" y="1840" width="48" height="48" transform="rotate(0,424,1864)"/></clipPath><clipPath id="clip-path-corners-dot-color-0-1"><rect x="208" y="1648" width="48" height="48" transform="rotate(0,232,1672)"/><rect x="208" y="1696" width="48" height="48" transform="rotate(0,232,1720)"/><rect x="208" y="1744" width="48" height="48" transform="rotate(0,232,1768)"/><rect x="256" y="1648" width="48" height="48" transform="rotate(0,280,1672)"/><rect x="256" y="1696" width="48" height="48" transform="rotate(0,280,1720)"/><rect x="256" y="1744" width="48" height="48" transform="rotate(0,280,1768)"/><rect x="304" y="1648" width="48" height="48" transform="rotate(0,328,1672)"/><rect x="304" y="1696" width="48" height="48" transform="rotate(0,328,1720)"/><rect x="304" y="1744" width="48" height="48" transform="rotate(0,328,1768)"/></clipPath></defs><rect x="0" y="0" height="2000" width="2000" clip-path="url('#clip-path-background-color')" fill="#ffffff"/><rect x="112" y="112" height="1776" width="1776" clip-path="url('#clip-path-dot-color')" fill="#000000"/><rect x="112" y="112" height="336" width="336" clip-path="url('#clip-path-corners-square-color-0-0')" fill="#000000"/><rect x="208" y="208" height="144" width="144" clip-path="url('#clip-path-corners-dot-color-0-0')" fill="#000000"/><rect x="1552" y="112" height="336" width="336" clip-path="url('#clip-path-corners-square-color-1-0')" fill="#000000"/><rect x="1648" y="208" height="144" width="144" clip-path="url('#clip-path-corners-dot-color-1-0')" fill="#000000"/><rect x="112" y="1552" height="336" width="336" clip-path="url('#clip-path-corners-square-color-0-1')" fill="#000000"/><rect x="208" y="1648" height="144" width="144" clip-path="url('#clip-path-corners-dot-color-0-1')" fill="#000000"/></svg>